<svg xmlns="http://www.w3.org/2000/svg" width="512" height="512" style="enable-background:new 0 0 512 512" xml:space="preserve"><g xmlns="http://www.w3.org/2000/svg"><path d="M294.907 192.134a7.5 7.5 0 0 0-7.5 7.5v12c0 4.143 3.358 7.5 7.5 7.5s7.5-3.357 7.5-7.5v-12a7.5 7.5 0 0 0-7.5-7.5zM144.7 227.393c-4.515-.942-8.96 2.55-8.96 7.35 0 4.043 3.26 7.5 7.5 7.5 4.088 0 7.5-3.309 7.5-7.5 0-3.664-2.683-6.722-6.04-7.35z" data-original="#000000"/><path d="M464.18 357.024C494.057 328.053 512 287.996 512 243.412c0-48.776-24.659-99.784-68.7-129.787l7.964-17.791c12.981-28.996-16.418-58.957-45.405-45.179l-9.732 4.626-3.611-10.153c-10.714-30.125-53.377-30.183-64.111 0l-3.611 10.154-9.733-4.627c-29.26-13.908-63.012 19.01-44.796 46.279l6.184 9.258c-16.412 5.572-33.834 4.139-48.627-3.24C124.112 51.239 0 125.197 0 242.922c0 41.87 15.361 79.385 42.01 108.111 26.94 29.04 63.44 46.76 102.8 49.91 10.046.746 18.679-5.793 21.3-15.04 3.57-12.561 15.18-21.34 28.23-21.34h24.927a52.236 52.236 0 0 1 2.519 16.073 53.142 53.142 0 0 1-8.054 28.137c-7.625 12.236-8.775 27.337-3.491 40.338 1.62 3.985 6.247 5.794 10.151 3.958 3.665-1.724 5.098-6.154 3.618-9.923-3.324-8.464-2.577-18.369 2.452-26.438a68.131 68.131 0 0 0 10.324-36.071c0-5.47-.661-10.843-1.943-16.073h5.448c8.732 0 15.795 2.529 21.849 6.92 53.078 38.576 124.432 39.799 178.65 4.277-1.229 14.878 2.317 29.055 9.729 40.946a29.606 29.606 0 0 1 4.472 15.681c0 26.753-33.002 39.903-51.374 20.291-3.781-4.036-10.544-2.73-12.499 2.502-7.216 19.309-31.898 25.82-47.624 11.739a7.502 7.502 0 0 0-10.006 0c-15.728 14.082-40.408 7.567-47.624-11.739-1.941-5.196-8.689-6.567-12.499-2.502-8.831 9.426-21.922 11.626-32.683 7.278-3.84-1.557-8.211.303-9.764 4.143a7.501 7.501 0 0 0 4.144 9.765c13.802 5.576 29.286 3.778 41.429-4.31 13.602 20.319 41.275 26.261 62 12.42 20.74 13.852 48.41 7.882 61.999-12.42 29.642 19.743 69.501-1.445 69.501-37.167a44.597 44.597 0 0 0-6.741-23.614c-9.377-15.044-11.691-39.512.93-51.75zm-269.8-7.461c-20.257.02-37.357 13.519-42.7 32.239-.695 2.419-2.828 4.356-5.7 4.181C74.027 380.243 15 319.602 15 243.032c.67-102.562 105.705-168.541 196.781-130.887-29.801 33.435-46.105 76.09-46.105 121.219 0 42.939 15.167 83.973 41.84 116.198H194.38zm76.57 9.779a50.683 50.683 0 0 0-8.971-5.188 27.592 27.592 0 0 0 4.823-9.256 7.499 7.499 0 0 0-5.056-9.324 7.498 7.498 0 0 0-9.324 5.055 12.536 12.536 0 0 1-3.145 5.282 12.412 12.412 0 0 1-8.728 3.655l-.11-.002h-12.81c-29.872-31.014-46.953-73.179-46.953-116.198 0-42.99 16.117-83.537 45.479-114.712 20.971 8.661 44.677 7.789 64.835-2.28 11.44-5.68 23.51-9.8 35.86-12.24 4.083-.812 6.704-4.77 5.9-8.81a7.504 7.504 0 0 0-8.81-5.91c-11.474 2.27-22.717 5.863-33.531 10.676l-7.672-11.486c-9.566-14.319 10.19-31.861 25.884-24.4l17.236 8.193c4.024 1.913 8.802-.086 10.286-4.261l6.395-17.981c5.999-16.867 29.85-16.859 35.846 0l6.395 17.981c1.489 4.189 6.277 6.167 10.286 4.261l17.235-8.193c16.42-7.806 32.566 9.217 25.274 25.503l-7.173 16.023a157.096 157.096 0 0 0-14.03-6.807c-19.311-8.189-39.87-12.39-61.13-12.479h-.03c-4.12 0-7.48 3.35-7.5 7.47-.021 4.13 3.33 7.51 7.46 7.53 79.872.353 141.88 63.755 141.88 142.06-.001 116.371-131.914 184.186-226.101 115.838z" data-original="#000000"/></g></svg>